<svg xmlns="http://www.w3.org/2000/svg" width="900" height="540" viewBox="0 0 900 540"><rect width="100%" height="100%" fill="#ffffff"/><text x="40" y="34" font-family="'CMU Serif', 'Computer Modern', 'Latin Modern Roman', Georgia, serif" font-size="20" font-weight="700" fill="#111827">Sensitivity: effect of training-run count on quality</text><rect x="90" y="70" width="760" height="390" fill="none" stroke="#374151" stroke-width="1.5"/><polygon points="90.00,102.84 105.51,217.02 121.02,232.97 136.53,235.31 152.04,283.17 167.55,139.04 183.06,237.93 198.57,162.99 214.08,173.10 229.59,141.21 245.10,269.95 260.61,231.16 276.12,173.53 291.63,107.73 307.14,194.54 322.65,183.26 338.16,195.88 353.67,104.10 369.18,199.74 384.69,306.47 400.20,102.88 415.71,250.72 431.22,105.98 446.73,254.07 462.24,302.92 477.76,161.27 493.27,196.34 508.78,179.30 524.29,214.47 539.80,243.74 555.31,117.64 570.82,137.33 586.33,226.12 601.84,300.52 617.35,176.14 632.86,96.90 648.37,311.41 663.88,110.94 679.39,103.10 694.90,139.89 710.41,246.31 725.92,172.91 741.43,213.05 756.94,133.35 772.45,387.24 787.96,215.27 803.47,221.72 818.98,126.18 834.49,157.55 850.00,296.36 850.00,302.06 834.49,184.29 818.98,135.53 803.47,284.41 787.96,240.34 772.45,433.10 756.94,182.40 741.43,229.58 725.92,187.06 710.41,272.76 694.90,151.88 679.39,139.12 663.88,116.93 648.37,315.85 632.86,99.53 617.35,232.10 601.84,316.47 586.33,270.79 570.82,156.21 555.31,144.93 539.80,253.94 524.29,279.00 508.78,209.40 493.27,203.52 477.76,162.29 462.24,323.15 446.73,266.54 431.22,152.43 415.71,336.34 400.20,122.49 384.69,351.94 369.18,234.24 353.67,124.27 338.16,217.71 322.65,188.30 307.14,294.44 291.63,141.52 276.12,200.51 260.61,266.91 245.10,290.03 229.59,192.16 214.08,175.92 198.57,165.86 183.06,355.61 167.55,170.24 152.04,341.59 136.53,286.70 121.02,273.03 105.51,270.59 90.00,148.36" fill="#0072B2" fill-opacity="0.12" stroke="none"/><polyline points="90.00,125.60 105.51,243.81 121.02,253.00 136.53,261.00 152.04,312.38 167.55,154.64 183.06,296.77 198.57,164.42 214.08,174.51 229.59,166.68 245.10,279.99 260.61,249.03 276.12,187.02 291.63,124.63 307.14,244.49 322.65,185.78 338.16,206.79 353.67,114.19 369.18,216.99 384.69,329.20 400.20,112.69 415.71,293.53 431.22,129.21 446.73,260.31 462.24,313.04 477.76,161.78 493.27,199.93 508.78,194.35 524.29,246.73 539.80,248.84 555.31,131.29 570.82,146.77 586.33,248.46 601.84,308.49 617.35,204.12 632.86,98.21 648.37,313.63 663.88,113.94 679.39,121.11 694.90,145.89 710.41,259.54 725.92,179.99 741.43,221.31 756.94,157.88 772.45,410.17 787.96,227.80 803.47,253.07 818.98,130.86 834.49,170.92 850.00,299.21" fill="none" stroke="#4b5563" stroke-width="1.5" stroke-dasharray="4 3"/><polyline points="90.00,133.71 109.49,141.63 128.97,143.07 148.46,143.78 167.95,133.70 187.44,131.44 206.92,132.31 226.41,133.31 245.90,133.25 265.38,133.33 284.87,133.50 304.36,133.78 323.85,133.01 343.33,132.79 362.82,132.52 382.31,133.12 401.79,133.17 421.28,133.87 440.77,132.12 460.26,132.36 479.74,127.68 499.23,126.89 518.72,126.42 538.21,126.60 557.69,126.90 577.18,126.54 596.67,125.97 616.15,125.01 635.64,125.44 655.13,125.84 674.62,126.23 694.10,126.56 713.59,133.15 733.08,133.47 752.56,134.42 772.05,134.28 791.54,134.22 811.03,133.61 830.51,132.36 850.00,133.22" fill="none" stroke="#0072B2" stroke-width="3"/><rect x="556" y="362" width="282" height="86" fill="#ffffff" fill-opacity="0.85" stroke="none"/><rect x="568" y="377.0" width="30" height="12" fill="#0072B2" fill-opacity="0.35" stroke="none"/><text x="604" y="387.0" font-family="'CMU Serif', 'Computer Modern', 'Latin Modern Roman', Georgia, serif" font-size="12" fill="#111827">95% CI (observed mean)</text><line x1="568" y1="405.0" x2="598" y2="405.0" stroke="#4b5563" stroke-width="1.5" stroke-dasharray="4 3"/><text x="604" y="409.0" font-family="'CMU Serif', 'Computer Modern', 'Latin Modern Roman', Georgia, serif" font-size="12" fill="#111827">Observed mean (successful runs)</text><line x1="568" y1="427.0" x2="598" y2="427.0" stroke="#0072B2" stroke-width="3"/><text x="604" y="431.0" font-family="'CMU Serif', 'Computer Modern', 'Latin Modern Roman', Georgia, serif" font-size="12" fill="#111827">Partial dependence (RF)</text><line x1="237.35" y1="460" x2="237.35" y2="465" stroke="#374151" stroke-width="1"/><text x="237.35" y="480" text-anchor="middle" font-family="'CMU Serif', 'Computer Modern', 'Latin Modern Roman', Georgia, serif" font-size="13" fill="#4b5563">10,000</text><line x1="392.45" y1="460" x2="392.45" y2="465" stroke="#374151" stroke-width="1"/><text x="392.45" y="480" text-anchor="middle" font-family="'CMU Serif', 'Computer Modern', 'Latin Modern Roman', Georgia, serif" font-size="13" fill="#4b5563">15,000</text><line x1="547.55" y1="460" x2="547.55" y2="465" stroke="#374151" stroke-width="1"/><text x="547.55" y="480" text-anchor="middle" font-family="'CMU Serif', 'Computer Modern', 'Latin Modern Roman', Georgia, serif" font-size="13" fill="#4b5563">20,000</text><line x1="702.65" y1="460" x2="702.65" y2="465" stroke="#374151" stroke-width="1"/><text x="702.65" y="480" text-anchor="middle" font-family="'CMU Serif', 'Computer Modern', 'Latin Modern Roman', Georgia, serif" font-size="13" fill="#4b5563">25,000</text><line x1="85" y1="362.50" x2="90" y2="362.50" stroke="#374151" stroke-width="1"/><text x="82" y="366.50" text-anchor="end" font-family="'CMU Serif', 'Computer Modern', 'Latin Modern Roman', Georgia, serif" font-size="13" fill="#4b5563">-0.68</text><line x1="85" y1="265.00" x2="90" y2="265.00" stroke="#374151" stroke-width="1"/><text x="82" y="269.00" text-anchor="end" font-family="'CMU Serif', 'Computer Modern', 'Latin Modern Roman', Georgia, serif" font-size="13" fill="#4b5563">-0.55</text><line x1="85" y1="167.50" x2="90" y2="167.50" stroke="#374151" stroke-width="1"/><text x="82" y="171.50" text-anchor="end" font-family="'CMU Serif', 'Computer Modern', 'Latin Modern Roman', Georgia, serif" font-size="13" fill="#4b5563">-0.42</text><text x="470" y="510" text-anchor="middle" font-family="'CMU Serif', 'Computer Modern', 'Latin Modern Roman', Georgia, serif" font-size="14" fill="#111827">Number of training runs</text><text x="28" y="265" transform="rotate(-90 28 265)" text-anchor="middle" font-family="'CMU Serif', 'Computer Modern', 'Latin Modern Roman', Georgia, serif" font-size="14" fill="#111827">γ = (nRMSE – nRMSE₀) / nRMSE₀</text><text x="102" y="450" font-family="'CMU Serif', 'Computer Modern', 'Latin Modern Roman', Georgia, serif" font-size="11" fill="#4b5563">RF importance: 0.029 (lowest of 13 parameters)</text></svg>
