<svg xmlns="http://www.w3.org/2000/svg" width="1120" height="420" viewBox="0 0 1120 420"><rect width="100%" height="100%" fill="#ffffff"/><line x1="557" y1="20" x2="557" y2="400" stroke="#d1d5db" stroke-width="1"/><text x="10" y="37" font-family="'CMU Serif', 'Computer Modern', 'Latin Modern Roman', Georgia, serif" font-size="20" font-weight="700" fill="#111827">Quality model: RF feature importance</text><line x1="5" y1="43" x2="525" y2="43" stroke="#374151" stroke-width="0.8"/><line x1="248" y1="357" x2="520" y2="357" stroke="#374151" stroke-width="1.2"/><line x1="248" y1="65" x2="248" y2="357" stroke="#374151" stroke-width="1.2"/><line x1="248.0" y1="357" x2="248.0" y2="361" stroke="#374151" stroke-width="1"/><line x1="248.0" y1="65" x2="248.0" y2="357" stroke="#d1d5db" stroke-width="0.5" stroke-dasharray="2 3"/><text x="248.0" y="371.0" text-anchor="middle" font-family="'CMU Serif', 'Computer Modern', 'Latin Modern Roman', Georgia, serif" font-size="13" fill="#4b5563">0.0</text><line x1="308.2" y1="357" x2="308.2" y2="361" stroke="#374151" stroke-width="1"/><line x1="308.2" y1="65" x2="308.2" y2="357" stroke="#d1d5db" stroke-width="0.5" stroke-dasharray="2 3"/><text x="308.2" y="371.0" text-anchor="middle" font-family="'CMU Serif', 'Computer Modern', 'Latin Modern Roman', Georgia, serif" font-size="13" fill="#4b5563">0.1</text><line x1="368.4" y1="357" x2="368.4" y2="361" stroke="#374151" stroke-width="1"/><line x1="368.4" y1="65" x2="368.4" y2="357" stroke="#d1d5db" stroke-width="0.5" stroke-dasharray="2 3"/><text x="368.4" y="371.0" text-anchor="middle" font-family="'CMU Serif', 'Computer Modern', 'Latin Modern Roman', Georgia, serif" font-size="13" fill="#4b5563">0.2</text><line x1="428.5" y1="357" x2="428.5" y2="361" stroke="#374151" stroke-width="1"/><line x1="428.5" y1="65" x2="428.5" y2="357" stroke="#d1d5db" stroke-width="0.5" stroke-dasharray="2 3"/><text x="428.5" y="371.0" text-anchor="middle" font-family="'CMU Serif', 'Computer Modern', 'Latin Modern Roman', Georgia, serif" font-size="13" fill="#4b5563">0.3</text><text x="384" y="385" text-anchor="middle" font-family="'CMU Serif', 'Computer Modern', 'Latin Modern Roman', Georgia, serif" font-size="14" fill="#111827">RF feature importance (mean decrease in impurity)</text><rect x="248" y="65" width="272" height="24" fill="#d1d5db" fill-opacity="0.3"/><rect x="248" y="65" width="272.00" height="24" fill="#0072B2"/><text x="240" y="84" text-anchor="end" font-family="'CMU Serif', 'Computer Modern', 'Latin Modern Roman', Georgia, serif" font-size="13" fill="#111827">BH threshold (q)</text><text x="515.00" y="84" text-anchor="end" font-family="'CMU Serif', 'Computer Modern', 'Latin Modern Roman', Georgia, serif" font-size="12" fill="#ffffff">0.452</text><rect x="248" y="101" width="272" height="24" fill="#d1d5db" fill-opacity="0.3"/><rect x="248" y="101" width="84.85" height="24" fill="#0072B2"/><text x="240" y="120" text-anchor="end" font-family="'CMU Serif', 'Computer Modern', 'Latin Modern Roman', Georgia, serif" font-size="13" fill="#111827">Sparsity (s)</text><text x="337.85" y="120" text-anchor="start" font-family="'CMU Serif', 'Computer Modern', 'Latin Modern Roman', Georgia, serif" font-size="12" fill="#4b5563">0.141</text><rect x="248" y="137" width="272" height="24" fill="#d1d5db" fill-opacity="0.3"/><rect x="248" y="137" width="61.38" height="24" fill="#0072B2"/><text x="240" y="156" text-anchor="end" font-family="'CMU Serif', 'Computer Modern', 'Latin Modern Roman', Georgia, serif" font-size="13" fill="#111827">Screening permutations</text><text x="314.38" y="156" text-anchor="start" font-family="'CMU Serif', 'Computer Modern', 'Latin Modern Roman', Georgia, serif" font-size="12" fill="#4b5563">0.102</text><rect x="248" y="173" width="272" height="24" fill="#d1d5db" fill-opacity="0.3"/><rect x="248" y="173" width="46.34" height="24" fill="#0072B2"/><text x="240" y="192" text-anchor="end" font-family="'CMU Serif', 'Computer Modern', 'Latin Modern Roman', Georgia, serif" font-size="13" fill="#111827">Input count (d)</text><text x="299.34" y="192" text-anchor="start" font-family="'CMU Serif', 'Computer Modern', 'Latin Modern Roman', Georgia, serif" font-size="12" fill="#4b5563">0.077</text><rect x="248" y="209" width="272" height="24" fill="#d1d5db" fill-opacity="0.3"/><rect x="248" y="209" width="43.33" height="24" fill="#0072B2"/><text x="240" y="228" text-anchor="end" font-family="'CMU Serif', 'Computer Modern', 'Latin Modern Roman', Georgia, serif" font-size="13" fill="#111827">Interaction density (ρ)</text><text x="296.33" y="228" text-anchor="start" font-family="'CMU Serif', 'Computer Modern', 'Latin Modern Roman', Georgia, serif" font-size="12" fill="#4b5563">0.072</text><rect x="248" y="245" width="272" height="24" fill="#d1d5db" fill-opacity="0.3"/><rect x="248" y="245" width="32.50" height="24" fill="#0072B2"/><text x="240" y="264" text-anchor="end" font-family="'CMU Serif', 'Computer Modern', 'Latin Modern Roman', Georgia, serif" font-size="13" fill="#111827">Nonlinearity strength (κ)</text><text x="285.50" y="264" text-anchor="start" font-family="'CMU Serif', 'Computer Modern', 'Latin Modern Roman', Georgia, serif" font-size="12" fill="#4b5563">0.054</text><rect x="248" y="281" width="272" height="24" fill="#d1d5db" fill-opacity="0.3"/><rect x="248" y="281" width="28.28" height="24" fill="#0072B2"/><text x="240" y="300" text-anchor="end" font-family="'CMU Serif', 'Computer Modern', 'Latin Modern Roman', Georgia, serif" font-size="13" fill="#111827">Signal-to-noise ratio (σ)</text><text x="281.28" y="300" text-anchor="start" font-family="'CMU Serif', 'Computer Modern', 'Latin Modern Roman', Georgia, serif" font-size="12" fill="#4b5563">0.047</text><rect x="248" y="317" width="272" height="24" fill="#d1d5db" fill-opacity="0.3"/><rect x="248" y="317" width="12.64" height="24" fill="#0072B2"/><text x="240" y="336" text-anchor="end" font-family="'CMU Serif', 'Computer Modern', 'Latin Modern Roman', Georgia, serif" font-size="13" fill="#111827">Interaction p-threshold</text><text x="265.64" y="336" text-anchor="start" font-family="'CMU Serif', 'Computer Modern', 'Latin Modern Roman', Georgia, serif" font-size="12" fill="#4b5563">0.021</text><text x="580" y="37" font-family="'CMU Serif', 'Computer Modern', 'Latin Modern Roman', Georgia, serif" font-size="20" font-weight="700" fill="#111827">Runtime model: RF feature importance</text><line x1="575" y1="43" x2="1075" y2="43" stroke="#374151" stroke-width="0.8"/><line x1="788" y1="357" x2="1070" y2="357" stroke="#374151" stroke-width="1.2"/><line x1="788" y1="65" x2="788" y2="357" stroke="#374151" stroke-width="1.2"/><line x1="788.0" y1="357" x2="788.0" y2="361" stroke="#374151" stroke-width="1"/><line x1="788.0" y1="65" x2="788.0" y2="357" stroke="#d1d5db" stroke-width="0.5" stroke-dasharray="2 3"/><text x="788.0" y="371.0" text-anchor="middle" font-family="'CMU Serif', 'Computer Modern', 'Latin Modern Roman', Georgia, serif" font-size="13" fill="#4b5563">0.0</text><line x1="858.5" y1="357" x2="858.5" y2="361" stroke="#374151" stroke-width="1"/><line x1="858.5" y1="65" x2="858.5" y2="357" stroke="#d1d5db" stroke-width="0.5" stroke-dasharray="2 3"/><text x="858.5" y="371.0" text-anchor="middle" font-family="'CMU Serif', 'Computer Modern', 'Latin Modern Roman', Georgia, serif" font-size="13" fill="#4b5563">0.1</text><line x1="929.0" y1="357" x2="929.0" y2="361" stroke="#374151" stroke-width="1"/><line x1="929.0" y1="65" x2="929.0" y2="357" stroke="#d1d5db" stroke-width="0.5" stroke-dasharray="2 3"/><text x="929.0" y="371.0" text-anchor="middle" font-family="'CMU Serif', 'Computer Modern', 'Latin Modern Roman', Georgia, serif" font-size="13" fill="#4b5563">0.2</text><line x1="999.5" y1="357" x2="999.5" y2="361" stroke="#374151" stroke-width="1"/><line x1="999.5" y1="65" x2="999.5" y2="357" stroke="#d1d5db" stroke-width="0.5" stroke-dasharray="2 3"/><text x="999.5" y="371.0" text-anchor="middle" font-family="'CMU Serif', 'Computer Modern', 'Latin Modern Roman', Georgia, serif" font-size="13" fill="#4b5563">0.3</text><text x="929" y="385" text-anchor="middle" font-family="'CMU Serif', 'Computer Modern', 'Latin Modern Roman', Georgia, serif" font-size="14" fill="#111827">RF feature importance (mean decrease in impurity)</text><rect x="788" y="65" width="282" height="24" fill="#d1d5db" fill-opacity="0.3"/><rect x="788" y="65" width="282.00" height="24" fill="#E69F00"/><text x="780" y="84" text-anchor="end" font-family="'CMU Serif', 'Computer Modern', 'Latin Modern Roman', Georgia, serif" font-size="13" fill="#111827">Sparsity (s)</text><text x="1065.00" y="84" text-anchor="end" font-family="'CMU Serif', 'Computer Modern', 'Latin Modern Roman', Georgia, serif" font-size="12" fill="#ffffff">0.400</text><rect x="788" y="101" width="282" height="24" fill="#d1d5db" fill-opacity="0.3"/><rect x="788" y="101" width="257.32" height="24" fill="#E69F00"/><text x="780" y="120" text-anchor="end" font-family="'CMU Serif', 'Computer Modern', 'Latin Modern Roman', Georgia, serif" font-size="13" fill="#111827">Input count (d)</text><text x="1040.33" y="120" text-anchor="end" font-family="'CMU Serif', 'Computer Modern', 'Latin Modern Roman', Georgia, serif" font-size="12" fill="#ffffff">0.365</text><rect x="788" y="137" width="282" height="24" fill="#d1d5db" fill-opacity="0.3"/><rect x="788" y="137" width="54.28" height="24" fill="#E69F00"/><text x="780" y="156" text-anchor="end" font-family="'CMU Serif', 'Computer Modern', 'Latin Modern Roman', Georgia, serif" font-size="13" fill="#111827">Run count (n)</text><text x="847.28" y="156" text-anchor="start" font-family="'CMU Serif', 'Computer Modern', 'Latin Modern Roman', Georgia, serif" font-size="12" fill="#4b5563">0.077</text><rect x="788" y="173" width="282" height="24" fill="#d1d5db" fill-opacity="0.3"/><rect x="788" y="173" width="37.36" height="24" fill="#E69F00"/><text x="780" y="192" text-anchor="end" font-family="'CMU Serif', 'Computer Modern', 'Latin Modern Roman', Georgia, serif" font-size="13" fill="#111827">Interaction permutations</text><text x="830.37" y="192" text-anchor="start" font-family="'CMU Serif', 'Computer Modern', 'Latin Modern Roman', Georgia, serif" font-size="12" fill="#4b5563">0.053</text><rect x="788" y="209" width="282" height="24" fill="#d1d5db" fill-opacity="0.3"/><rect x="788" y="209" width="34.55" height="24" fill="#E69F00"/><text x="780" y="228" text-anchor="end" font-family="'CMU Serif', 'Computer Modern', 'Latin Modern Roman', Georgia, serif" font-size="13" fill="#111827">Stability subsamples</text><text x="827.54" y="228" text-anchor="start" font-family="'CMU Serif', 'Computer Modern', 'Latin Modern Roman', Georgia, serif" font-size="12" fill="#4b5563">0.049</text><rect x="788" y="245" width="282" height="24" fill="#d1d5db" fill-opacity="0.3"/><rect x="788" y="245" width="11.28" height="24" fill="#E69F00"/><text x="780" y="264" text-anchor="end" font-family="'CMU Serif', 'Computer Modern', 'Latin Modern Roman', Georgia, serif" font-size="13" fill="#111827">Interaction density (ρ)</text><text x="804.28" y="264" text-anchor="start" font-family="'CMU Serif', 'Computer Modern', 'Latin Modern Roman', Georgia, serif" font-size="12" fill="#4b5563">0.016</text><rect x="788" y="281" width="282" height="24" fill="#d1d5db" fill-opacity="0.3"/><rect x="788" y="281" width="9.16" height="24" fill="#E69F00"/><text x="780" y="300" text-anchor="end" font-family="'CMU Serif', 'Computer Modern', 'Latin Modern Roman', Georgia, serif" font-size="13" fill="#111827">Signal-to-noise ratio (σ)</text><text x="802.16" y="300" text-anchor="start" font-family="'CMU Serif', 'Computer Modern', 'Latin Modern Roman', Georgia, serif" font-size="12" fill="#4b5563">0.013</text><rect x="788" y="317" width="282" height="24" fill="#d1d5db" fill-opacity="0.3"/><rect x="788" y="317" width="8.46" height="24" fill="#E69F00"/><text x="780" y="336" text-anchor="end" font-family="'CMU Serif', 'Computer Modern', 'Latin Modern Roman', Georgia, serif" font-size="13" fill="#111827">Nonlinearity strength (κ)</text><text x="801.46" y="336" text-anchor="start" font-family="'CMU Serif', 'Computer Modern', 'Latin Modern Roman', Georgia, serif" font-size="12" fill="#4b5563">0.012</text></svg>
