<svg xmlns="http://www.w3.org/2000/svg" width="980" height="560" viewBox="0 0 980 560"><rect x="0" y="0" width="980" height="560" fill="#ffffff"/><line x1="90.00" y1="30.00" x2="90.00" y2="490.00" stroke="#374151" stroke-width="2"/><line x1="90.00" y1="490.00" x2="940.00" y2="490.00" stroke="#374151" stroke-width="2"/><line x1="90.00" y1="490.00" x2="90.00" y2="496.00" stroke="#374151" stroke-width="1"/><text x="90.00" y="514.00" text-anchor="middle" font-family="Helvetica, Arial, sans-serif" font-size="11" fill="#4b5563">0</text><line x1="260.00" y1="490.00" x2="260.00" y2="496.00" stroke="#374151" stroke-width="1"/><text x="260.00" y="514.00" text-anchor="middle" font-family="Helvetica, Arial, sans-serif" font-size="11" fill="#4b5563">34</text><line x1="430.00" y1="490.00" x2="430.00" y2="496.00" stroke="#374151" stroke-width="1"/><text x="430.00" y="514.00" text-anchor="middle" font-family="Helvetica, Arial, sans-serif" font-size="11" fill="#4b5563">68</text><line x1="600.00" y1="490.00" x2="600.00" y2="496.00" stroke="#374151" stroke-width="1"/><text x="600.00" y="514.00" text-anchor="middle" font-family="Helvetica, Arial, sans-serif" font-size="11" fill="#4b5563">103</text><line x1="770.00" y1="490.00" x2="770.00" y2="496.00" stroke="#374151" stroke-width="1"/><text x="770.00" y="514.00" text-anchor="middle" font-family="Helvetica, Arial, sans-serif" font-size="11" fill="#4b5563">137</text><line x1="940.00" y1="490.00" x2="940.00" y2="496.00" stroke="#374151" stroke-width="1"/><text x="940.00" y="514.00" text-anchor="middle" font-family="Helvetica, Arial, sans-serif" font-size="11" fill="#4b5563">171</text><line x1="84.00" y1="490.00" x2="90.00" y2="490.00" stroke="#374151" stroke-width="1"/><line x1="90.00" y1="490.00" x2="940.00" y2="490.00" stroke="#d1d5db" stroke-width="1"/><text x="80.00" y="494.00" text-anchor="end" font-family="Helvetica, Arial, sans-serif" font-size="11" fill="#4b5563">0.071</text><line x1="84.00" y1="398.00" x2="90.00" y2="398.00" stroke="#374151" stroke-width="1"/><line x1="90.00" y1="398.00" x2="940.00" y2="398.00" stroke="#d1d5db" stroke-width="1"/><text x="80.00" y="402.00" text-anchor="end" font-family="Helvetica, Arial, sans-serif" font-size="11" fill="#4b5563">2.145</text><line x1="84.00" y1="306.00" x2="90.00" y2="306.00" stroke="#374151" stroke-width="1"/><line x1="90.00" y1="306.00" x2="940.00" y2="306.00" stroke="#d1d5db" stroke-width="1"/><text x="80.00" y="310.00" text-anchor="end" font-family="Helvetica, Arial, sans-serif" font-size="11" fill="#4b5563">4.220</text><line x1="84.00" y1="214.00" x2="90.00" y2="214.00" stroke="#374151" stroke-width="1"/><line x1="90.00" y1="214.00" x2="940.00" y2="214.00" stroke="#d1d5db" stroke-width="1"/><text x="80.00" y="218.00" text-anchor="end" font-family="Helvetica, Arial, sans-serif" font-size="11" fill="#4b5563">6.294</text><line x1="84.00" y1="122.00" x2="90.00" y2="122.00" stroke="#374151" stroke-width="1"/><line x1="90.00" y1="122.00" x2="940.00" y2="122.00" stroke="#d1d5db" stroke-width="1"/><text x="80.00" y="126.00" text-anchor="end" font-family="Helvetica, Arial, sans-serif" font-size="11" fill="#4b5563">8.369</text><line x1="84.00" y1="30.00" x2="90.00" y2="30.00" stroke="#374151" stroke-width="1"/><line x1="90.00" y1="30.00" x2="940.00" y2="30.00" stroke="#d1d5db" stroke-width="1"/><text x="80.00" y="34.00" text-anchor="end" font-family="Helvetica, Arial, sans-serif" font-size="11" fill="#4b5563">10.443</text><polyline points="940.00,490.00 935.03,490.00 930.06,490.00 925.09,489.99 920.12,489.99 915.15,489.98 910.18,489.98 905.20,489.97 900.23,489.95 895.26,489.94 890.29,489.92 885.32,489.90 880.35,489.88 875.38,489.86 870.41,489.84 865.44,489.82 860.47,489.80 855.50,489.77 850.53,489.75 845.56,489.72 840.58,489.70 835.61,489.67 830.64,489.64 825.67,489.61 820.70,489.58 815.73,489.54 810.76,489.51 805.79,489.48 800.82,489.44 795.85,489.40 790.88,489.37 785.91,489.33 780.94,489.28 775.96,489.22 770.99,489.15 766.02,489.09 761.05,489.01 756.08,488.94 751.11,488.85 746.14,488.77 741.17,488.68 736.20,488.59 731.23,488.49 726.26,488.39 721.29,488.28 716.32,488.17 711.35,488.05 706.37,487.94 701.40,487.82 696.43,487.69 691.46,487.56 686.49,487.43 681.52,487.29 676.55,487.15 671.58,487.02 666.61,486.88 661.64,486.74 656.67,486.59 651.70,486.43 646.73,486.27 641.75,486.11 636.78,485.95 631.81,485.78 626.84,485.57 621.87,485.36 616.90,485.15 611.93,484.93 606.96,484.71 601.99,484.48 597.02,484.26 592.05,484.03 587.08,483.80 582.11,483.57 577.13,483.33 572.16,483.07 567.19,482.82 562.22,482.55 557.25,482.26 552.28,481.98 547.31,481.68 542.34,481.39 537.37,481.08 532.40,480.77 527.43,480.44 522.46,480.12 517.49,479.78 512.51,479.44 507.54,479.09 502.57,478.72 497.60,478.35 492.63,477.93 487.66,477.51 482.69,477.04 477.72,476.56 472.75,476.06 467.78,475.55 462.81,475.02 457.84,474.46 452.87,473.91 447.89,473.32 442.92,472.71 437.95,472.10 432.98,471.47 428.01,470.84 423.04,470.20 418.07,469.51 413.10,468.81 408.13,468.10 403.16,467.38 398.19,466.64 393.22,465.89 388.25,465.10 383.27,464.30 378.30,463.49 373.33,462.66 368.36,461.83 363.39,460.98 358.42,460.07 353.45,459.13 348.48,458.07 343.51,456.98 338.54,455.78 333.57,454.55 328.60,453.29 323.63,452.03 318.65,450.75 313.68,449.39 308.71,448.02 303.74,446.61 298.77,445.19 293.80,443.72 288.83,442.23 283.86,440.67 278.89,439.03 273.92,437.39 268.95,435.60 263.98,433.38 259.01,431.12 254.04,428.83 249.06,426.46 244.09,423.95 239.12,421.32 234.15,418.62 229.18,415.91 224.21,413.08 219.24,409.95 214.27,406.67 209.30,403.19 204.33,399.45 199.36,395.51 194.39,391.53 189.42,387.42 184.44,382.67 179.47,376.92 174.50,371.17 169.53,363.75 164.56,356.31 159.59,347.54 154.62,338.64 149.65,329.31 144.68,319.31 139.71,308.14 134.74,294.77 129.77,279.75 124.80,264.19 119.82,246.46 114.85,227.04 109.88,199.95 104.91,171.35 99.94,141.68 94.97,88.10 90.00,30.00" fill="none" stroke="#0072B2" stroke-width="2.5"/><line x1="90.00" y1="490.00" x2="940.00" y2="490.00" stroke="#009E73" stroke-width="1.8" stroke-dasharray="9 4"/><line x1="343.51" y1="30.00" x2="343.51" y2="490.00" stroke="#D55E00" stroke-width="1.5" stroke-dasharray="6 4"/><line x1="746.14" y1="30.00" x2="746.14" y2="490.00" stroke="#CC79A7" stroke-width="1.8" stroke-dasharray="2 4"/><line x1="102.00" y1="42.00" x2="122.00" y2="42.00" stroke="#0072B2" stroke-width="2"/><text x="128.00" y="46.00" font-family="Helvetica, Arial, sans-serif" font-size="11" fill="#111827">Approx. no-refit upper-bound nRMSE</text><line x1="102.00" y1="60.00" x2="122.00" y2="60.00" stroke="#009E73" stroke-width="2" stroke-dasharray="5 4"/><text x="128.00" y="64.00" font-family="Helvetica, Arial, sans-serif" font-size="11" fill="#111827">Baseline macro nRMSE</text><line x1="102.00" y1="78.00" x2="122.00" y2="78.00" stroke="#D55E00" stroke-width="2" stroke-dasharray="5 4"/><text x="128.00" y="82.00" font-family="Helvetica, Arial, sans-serif" font-size="11" fill="#111827">Auto cutoff</text><line x1="102.00" y1="96.00" x2="122.00" y2="96.00" stroke="#CC79A7" stroke-width="2" stroke-dasharray="5 4"/><text x="128.00" y="100.00" font-family="Helvetica, Arial, sans-serif" font-size="11" fill="#111827">Effective cutoff</text><text x="515.00" y="540.00" text-anchor="middle" font-family="Helvetica, Arial, sans-serif" font-size="13" fill="#111827">Retained feature count</text><text x="20.00" y="260.00" text-anchor="middle" font-family="Helvetica, Arial, sans-serif" font-size="13" fill="#111827" transform="rotate(-90 20 260.00)">Approx. macro nRMSE upper bound</text><text x="90.00" y="516.00" text-anchor="start" font-family="Helvetica, Arial, sans-serif" font-size="11" fill="#4b5563">Auto remove=121, effective remove=40</text></svg>
