<svg xmlns="http://www.w3.org/2000/svg" width="860" height="274" viewBox="0 0 860 274">
<rect width="100%" height="100%" fill="#ffffff"/>
<text x="24" y="36" font-family="'CMU Serif', 'Computer Modern', 'Latin Modern Roman', Georgia, serif" font-size="22" fill="#111827" font-weight="bold">Holdout macro nRMSE</text>
<line x1="178" y1="48" x2="740" y2="48" stroke="#d1d5db" stroke-width="1"/>
<text x="24" y="81" font-family="'CMU Serif', 'Computer Modern', 'Latin Modern Roman', Georgia, serif" font-size="14" fill="#111827">Null mean</text>
<rect x="178" y="62" width="558.44" height="21" fill="#0072B2" stroke="#374151" stroke-width="0.8"/>
<line x1="730.55" y1="72" x2="740.00" y2="72" stroke="#374151" stroke-width="1.8"/>
<line x1="730.55" y1="67" x2="730.55" y2="77" stroke="#374151" stroke-width="1.8"/>
<line x1="740.00" y1="67" x2="740.00" y2="77" stroke="#374151" stroke-width="1.8"/>
<text x="748.00" y="78" font-family="'CMU Serif', 'Computer Modern', 'Latin Modern Roman', Georgia, serif" font-size="13" fill="#4b5563">0.1653</text>
<text x="24" y="115" font-family="'CMU Serif', 'Computer Modern', 'Latin Modern Roman', Georgia, serif" font-size="14" fill="#111827">Main effects OLS</text>
<rect x="178" y="96" width="274.31" height="21" fill="#0072B2" stroke="#374151" stroke-width="0.8"/>
<line x1="447.05" y1="106" x2="455.31" y2="106" stroke="#374151" stroke-width="1.8"/>
<line x1="447.05" y1="101" x2="447.05" y2="111" stroke="#374151" stroke-width="1.8"/>
<line x1="455.31" y1="101" x2="455.31" y2="111" stroke="#374151" stroke-width="1.8"/>
<text x="463.31" y="112" font-family="'CMU Serif', 'Computer Modern', 'Latin Modern Roman', Georgia, serif" font-size="13" fill="#4b5563">0.08118</text>
<text x="24" y="149" font-family="'CMU Serif', 'Computer Modern', 'Latin Modern Roman', Georgia, serif" font-size="14" fill="#111827">Screened OLS</text>
<rect x="178" y="130" width="274.32" height="21" fill="#0072B2" stroke="#374151" stroke-width="0.8"/>
<line x1="446.99" y1="140" x2="455.32" y2="140" stroke="#374151" stroke-width="1.8"/>
<line x1="446.99" y1="135" x2="446.99" y2="145" stroke="#374151" stroke-width="1.8"/>
<line x1="455.32" y1="135" x2="455.32" y2="145" stroke="#374151" stroke-width="1.8"/>
<text x="463.32" y="146" font-family="'CMU Serif', 'Computer Modern', 'Latin Modern Roman', Georgia, serif" font-size="13" fill="#4b5563">0.08119</text>
<text x="24" y="183" font-family="'CMU Serif', 'Computer Modern', 'Latin Modern Roman', Georgia, serif" font-size="14" fill="#111827">Penalized OLS</text>
<rect x="178" y="164" width="239.60" height="21" fill="#0072B2" stroke="#374151" stroke-width="0.8"/>
<line x1="412.43" y1="174" x2="420.83" y2="174" stroke="#374151" stroke-width="1.8"/>
<line x1="412.43" y1="169" x2="412.43" y2="179" stroke="#374151" stroke-width="1.8"/>
<line x1="420.83" y1="169" x2="420.83" y2="179" stroke="#374151" stroke-width="1.8"/>
<text x="428.83" y="180" font-family="'CMU Serif', 'Computer Modern', 'Latin Modern Roman', Georgia, serif" font-size="13" fill="#4b5563">0.07091</text>
<text x="24" y="217" font-family="'CMU Serif', 'Computer Modern', 'Latin Modern Roman', Georgia, serif" font-size="14" fill="#111827">Final OLS</text>
<rect x="178" y="198" width="243.60" height="21" fill="#0072B2" stroke="#374151" stroke-width="0.8"/>
<line x1="416.53" y1="208" x2="424.61" y2="208" stroke="#374151" stroke-width="1.8"/>
<line x1="416.53" y1="203" x2="416.53" y2="213" stroke="#374151" stroke-width="1.8"/>
<line x1="424.61" y1="203" x2="424.61" y2="213" stroke="#374151" stroke-width="1.8"/>
<text x="432.61" y="214" font-family="'CMU Serif', 'Computer Modern', 'Latin Modern Roman', Georgia, serif" font-size="13" fill="#4b5563">0.07209</text>
</svg>
