<svg xmlns="http://www.w3.org/2000/svg" width="860" height="268" viewBox="0 0 860 268"><rect width="100%" height="100%" fill="#ffffff"/><text x="24" y="32" font-family="Helvetica, Arial, sans-serif" font-size="20" fill="#111827" font-weight="bold">Macro nRMSE with bootstrap confidence intervals</text><line x1="164" y1="44" x2="750" y2="44" stroke="#d1d5db" stroke-width="1"/><text x="24" y="76" font-family="Helvetica, Arial, sans-serif" font-size="13" fill="#111827">penalized_ols</text><line x1="164.00" y1="70" x2="179.02" y2="70" stroke="#374151" stroke-width="2"/><circle cx="173.24" cy="70" r="4.2" fill="#0072B2" stroke="#ffffff" stroke-width="1"/><text x="187.02" y="74" font-family="Helvetica, Arial, sans-serif" font-size="12" fill="#4b5563">0.07091</text><text x="24" y="110" font-family="Helvetica, Arial, sans-serif" font-size="13" fill="#111827">final_ols</text><line x1="171.34" y1="104" x2="185.79" y2="104" stroke="#374151" stroke-width="2"/><circle cx="180.41" cy="104" r="4.2" fill="#0072B2" stroke="#ffffff" stroke-width="1"/><text x="193.79" y="108" font-family="Helvetica, Arial, sans-serif" font-size="12" fill="#4b5563">0.07209</text><text x="24" y="144" font-family="Helvetica, Arial, sans-serif" font-size="13" fill="#111827">main_effects_ols</text><line x1="225.93" y1="138" x2="240.72" y2="138" stroke="#374151" stroke-width="2"/><circle cx="235.35" cy="138" r="4.2" fill="#0072B2" stroke="#ffffff" stroke-width="1"/><text x="248.72" y="142" font-family="Helvetica, Arial, sans-serif" font-size="12" fill="#4b5563">0.08118</text><text x="24" y="178" font-family="Helvetica, Arial, sans-serif" font-size="13" fill="#111827">screened_ols</text><line x1="225.83" y1="172" x2="240.73" y2="172" stroke="#374151" stroke-width="2"/><circle cx="235.37" cy="172" r="4.2" fill="#0072B2" stroke="#ffffff" stroke-width="1"/><text x="248.73" y="176" font-family="Helvetica, Arial, sans-serif" font-size="12" fill="#4b5563">0.08119</text><text x="24" y="212" font-family="Helvetica, Arial, sans-serif" font-size="13" fill="#111827">null_mean</text><line x1="733.09" y1="206" x2="750.00" y2="206" stroke="#374151" stroke-width="2"/><circle cx="743.63" cy="206" r="4.2" fill="#0072B2" stroke="#ffffff" stroke-width="1"/><text x="758.00" y="210" font-family="Helvetica, Arial, sans-serif" font-size="12" fill="#4b5563">0.1653</text></svg>
